<svg width="18" height="18" viewBox="0 0 18 18" fill="none" xmlns="http://www.w3.org/2000/svg">
<g clip-path="url(#clip0_5280_4682)">
<path fill-rule="evenodd" clip-rule="evenodd" d="M3.18192 3.45441C2.78359 3.45441 2.45466 3.78334 2.45466 4.18168V12.9089C2.45466 13.3072 2.78359 13.6362 3.18192 13.6362H14.8182C15.2165 13.6362 15.5455 13.3072 15.5455 12.9089V4.18168C15.5455 3.78334 15.2165 3.45441 14.8182 3.45441H3.18192ZM1.00012 4.18168C1.00012 2.98003 1.98027 1.99988 3.18192 1.99988H14.8182C16.0198 1.99988 17 2.98003 17 4.18168V12.9089C17 14.1105 16.0198 15.0907 14.8182 15.0907H3.18192C1.98027 15.0907 1.00012 14.1105 1.00012 12.9089V4.18168Z" fill="#616161"/>
<path fill-rule="evenodd" clip-rule="evenodd" d="M1.13165 3.76437C1.36199 3.43532 1.81546 3.35529 2.14451 3.58563L9.00012 8.38456L15.8557 3.58563C16.1848 3.35529 16.6383 3.43532 16.8686 3.76437C17.0989 4.09342 17.0189 4.5469 16.6899 4.77723L9.41718 9.8681C9.16677 10.0434 8.83347 10.0434 8.58306 9.8681L1.31039 4.77723C0.98134 4.5469 0.901315 4.09342 1.13165 3.76437Z" fill="#616161"/>
</g>
<defs>
<clipPath id="clip0_5280_4682">
<rect width="18" height="18" fill="white"/>
</clipPath>
</defs>
</svg>
