<svg width="18" height="18" viewBox="0 0 18 18" fill="none" xmlns="http://www.w3.org/2000/svg">
<path d="M14.361 2.22825C14.2274 2.00664 14.0389 1.82321 13.8137 1.69565C13.5885 1.56809 13.3343 1.50071 13.0755 1.5H4.9245C4.401 1.5 3.90825 1.779 3.639 2.22825L1.60725 5.61375C1.53694 5.73031 1.49985 5.86388 1.5 6C1.503 6.72391 1.76962 7.42194 2.25 7.9635V14.25C2.25 15.0773 2.92275 15.75 3.75 15.75H14.25C15.0773 15.75 15.75 15.0773 15.75 14.25V7.9635C16.2304 7.42194 16.497 6.72391 16.5 6C16.5001 5.86388 16.4631 5.73031 16.3927 5.61375L14.361 2.22825ZM14.988 6.18825C14.9417 6.55037 14.7651 6.88323 14.4913 7.12464C14.2174 7.36605 13.8651 7.49948 13.5 7.5C12.6727 7.5 12 6.82725 12 6C12 5.949 11.9813 5.904 11.9708 5.856L11.9858 5.853L11.415 3H13.0755L14.988 6.18825ZM8.11425 3H9.885L10.4948 6.04875C10.4685 6.85275 9.81 7.5 9 7.5C8.19 7.5 7.5315 6.85275 7.50525 6.04875L8.11425 3ZM4.9245 3H6.585L6.015 5.853L6.03 5.856C6.01875 5.904 6 5.949 6 6C6 6.82725 5.32725 7.5 4.5 7.5C4.13494 7.49948 3.78256 7.36605 3.50871 7.12464C3.23486 6.88323 3.05829 6.55037 3.012 6.18825L4.9245 3ZM7.5 14.25V12H10.5V14.25H7.5ZM12 14.25V12C12 11.1727 11.3273 10.5 10.5 10.5H7.5C6.67275 10.5 6 11.1727 6 12V14.25H3.75V8.8935C3.99075 8.95575 4.239 9 4.5 9C4.92586 9.00022 5.34687 8.90955 5.73488 8.73404C6.12289 8.55853 6.46897 8.30222 6.75 7.98225C7.29975 8.60625 8.10525 9 9 9C9.89475 9 10.7003 8.60625 11.25 7.98225C11.531 8.30222 11.8771 8.55853 12.2651 8.73404C12.6531 8.90955 13.0741 9.00022 13.5 9C13.761 9 14.0092 8.95575 14.25 8.8935V14.25H12Z" fill="#616161"/>
</svg>
