<svg width="18" height="18" viewBox="0 0 18 18" fill="none" xmlns="http://www.w3.org/2000/svg">
<g clip-path="url(#clip0_5271_4648)">
<g clip-path="url(#clip1_5271_4648)">
<path fillRule="evenodd" clipRule="evenodd" d="M17.2479 1.44417C17.2351 1.27124 17.1626 1.10191 17.0303 0.96967C16.8155 0.754828 16.5027 0.697576 16.2357 0.797915L1.25224 6.04213C0.961991 6.14371 0.763163 6.41219 0.750627 6.71945C0.738092 7.02671 0.914389 7.31049 1.1954 7.43538L7.6818 10.3182L10.5646 16.8046C10.6895 17.0856 10.9733 17.2619 11.2806 17.2494C11.5878 17.2369 11.8563 17.038 11.9579 16.7478L17.2026 1.76298C17.2408 1.66069 17.2559 1.55173 17.2479 1.44417ZM13.6457 3.29364L3.53331 6.83297L8.08389 8.85545L13.6457 3.29364ZM9.14456 9.9161L14.7064 4.35425L11.167 14.4667L9.14456 9.9161Z" fill="#616161"/>
</g>
</g>
<defs>
<clipPath id="clip0_5271_4648">
<rect width="18" height="18" fill="white"/>
</clipPath>
<clipPath id="clip1_5271_4648">
<rect width="18" height="18" fill="white"/>
</clipPath>
</defs>
</svg>
