<svg width="18" height="18" viewBox="0 0 18 18" fill="none" xmlns="http://www.w3.org/2000/svg">
<path fill-rule="evenodd" clip-rule="evenodd" d="M9.17199 6.34972C8.5312 6.23981 7.90455 6.60809 7.6888 7.22141C7.56662 7.56873 7.18601 7.75125 6.83869 7.62907C6.49136 7.50689 6.30884 7.12628 6.43103 6.77895C6.86252 5.55232 8.11581 4.81576 9.3974 5.03558C10.6789 5.25539 11.615 6.36731 11.6132 7.66745C11.6129 8.68769 10.8565 9.36144 10.3164 9.72155C10.026 9.91516 9.74028 10.0575 9.52984 10.1511C9.42367 10.1982 9.33427 10.234 9.26985 10.2586C9.23758 10.2709 9.21142 10.2804 9.19238 10.2872L9.16923 10.2953L9.16185 10.2978L9.15926 10.2987L9.15823 10.299C9.15803 10.2991 9.1574 10.2993 8.94658 9.66685L9.1574 10.2993C8.8081 10.4157 8.43056 10.227 8.31413 9.87766C8.19777 9.5286 8.38621 9.15133 8.73506 9.03462C8.73502 9.03464 8.7351 9.03461 8.73506 9.03462L8.73421 9.03491C8.73415 9.03493 8.73421 9.03492 8.73506 9.03462L8.7457 9.03089C8.75596 9.02724 8.77277 9.02115 8.79519 9.0126C8.84014 8.99548 8.90699 8.96879 8.98832 8.93264C9.15288 8.8595 9.3672 8.75186 9.57678 8.61215C10.0365 8.30566 10.2799 7.9796 10.2799 7.66685L10.2799 7.66585C10.2809 7.0157 9.81279 6.45964 9.17199 6.34972Z" fill="#616161"/>
<path fill-rule="evenodd" clip-rule="evenodd" d="M1.6665 9.00033C1.6665 4.95024 4.94975 1.66699 8.99984 1.66699C13.0499 1.66699 16.3332 4.95024 16.3332 9.00033C16.3332 13.0504 13.0499 16.3337 8.99984 16.3337C4.94975 16.3337 1.6665 13.0504 1.6665 9.00033ZM8.99984 3.00033C5.68613 3.00033 2.99984 5.68662 2.99984 9.00033C2.99984 12.314 5.68613 15.0003 8.99984 15.0003C12.3135 15.0003 14.9998 12.314 14.9998 9.00033C14.9998 5.68662 12.3135 3.00033 8.99984 3.00033Z" fill="#616161"/>
<path d="M9.66683 12.3334C9.66683 12.7016 9.36835 13.0001 9.00016 13.0001C8.63197 13.0001 8.3335 12.7016 8.3335 12.3334C8.3335 11.9652 8.63197 11.6667 9.00016 11.6667C9.36835 11.6667 9.66683 11.9652 9.66683 12.3334Z" fill="#616161"/>
</svg>
