<svg width="14" height="14" viewBox="0 0 14 14" fill="none" xmlns="http://www.w3.org/2000/svg">
<path fillRule="evenodd" clipRule="evenodd" d="M0.777588 6.06665C0.777588 3.14565 3.1455 0.77771 6.06646 0.77771C8.98743 0.77771 11.3553 3.14565 11.3553 6.06665C11.3553 8.98765 8.98743 11.3556 6.06646 11.3556C3.1455 11.3556 0.777588 8.98765 0.777588 6.06665ZM6.06646 2.02217C3.83278 2.02217 2.02203 3.83294 2.02203 6.06665C2.02203 8.30036 3.83278 10.1111 6.06646 10.1111C8.30014 10.1111 10.1109 8.30036 10.1109 6.06665C10.1109 3.83294 8.30014 2.02217 6.06646 2.02217Z" fill="#757575"/>
<path fillRule="evenodd" clipRule="evenodd" d="M8.92429 8.92436C9.16728 8.68136 9.56125 8.68136 9.80424 8.92436L13.0398 12.1599C13.2828 12.4029 13.2828 12.7969 13.0398 13.0399C12.7968 13.2829 12.4028 13.2829 12.1598 13.0399L8.92429 9.80432C8.6813 9.56133 8.6813 9.16735 8.92429 8.92436Z" fill="#757575"/>
</svg>
