<svg width="18" height="19" viewBox="0 0 18 19" fill="none" xmlns="http://www.w3.org/2000/svg">
<path fill-rule="evenodd" clip-rule="evenodd" d="M2 8.45006C2 5.16393 4.6639 2.5 7.94999 2.5C11.2361 2.5 13.9 5.16393 13.9 8.45006C13.9 11.7362 11.2361 14.4001 7.94999 14.4001C4.6639 14.4001 2 11.7362 2 8.45006ZM7.94999 3.90001C5.4371 3.90001 3.4 5.93714 3.4 8.45006C3.4 10.963 5.4371 13.0001 7.94999 13.0001C10.4629 13.0001 12.5 10.963 12.5 8.45006C12.5 5.93714 10.4629 3.90001 7.94999 3.90001Z" fill="#9E9E9E"/>
<path fill-rule="evenodd" clip-rule="evenodd" d="M11.165 11.665C11.4384 11.3916 11.8816 11.3916 12.155 11.665L15.795 15.305C16.0683 15.5784 16.0683 16.0216 15.795 16.295C15.5216 16.5683 15.0784 16.5683 14.805 16.295L11.165 12.6549C10.8917 12.3816 10.8917 11.9383 11.165 11.665Z" fill="#9E9E9E"/>
</svg>
