<svg width="26" height="16" viewBox="0 0 26 16" fill="none" xmlns="http://www.w3.org/2000/svg">
<rect width="26" height="16" rx="2" fill="#E0E0E0"/>
<path d="M7.00391 12.1797C6.6862 12.1797 6.39453 12.1016 6.12891 11.9453C5.86328 11.7865 5.65234 11.5755 5.49609 11.3125C5.33984 11.0469 5.26172 10.7552 5.26172 10.4375C5.26172 10.1172 5.33984 9.82552 5.49609 9.5625C5.65234 9.29687 5.86328 9.08464 6.12891 8.92578C6.39453 8.76693 6.6862 8.6875 7.00391 8.6875H7.86328V7.30469H7.00391C6.6862 7.30469 6.39453 7.22656 6.12891 7.07031C5.86328 6.91406 5.65234 6.70443 5.49609 6.44141C5.33984 6.17578 5.26172 5.88281 5.26172 5.5625C5.26172 5.24219 5.33984 4.95052 5.49609 4.6875C5.65234 4.42448 5.86328 4.21484 6.12891 4.05859C6.39453 3.89974 6.6862 3.82031 7.00391 3.82031C7.32422 3.82031 7.61589 3.89974 7.87891 4.05859C8.14453 4.21484 8.35547 4.42448 8.51172 4.6875C8.67057 4.95052 8.75 5.24219 8.75 5.5625V6.41406H10.1367V5.5625C10.1367 5.24219 10.2148 4.95052 10.3711 4.6875C10.5273 4.42448 10.737 4.21484 11 4.05859C11.2656 3.89974 11.5586 3.82031 11.8789 3.82031C12.1992 3.82031 12.4909 3.89974 12.7539 4.05859C13.0169 4.21484 13.2266 4.42448 13.3828 4.6875C13.5391 4.95052 13.6172 5.24219 13.6172 5.5625C13.6172 5.88281 13.5391 6.17578 13.3828 6.44141C13.2266 6.70443 13.0169 6.91406 12.7539 7.07031C12.4909 7.22656 12.1992 7.30469 11.8789 7.30469H11.0234V8.6875H11.8789C12.1992 8.6875 12.4909 8.76693 12.7539 8.92578C13.0169 9.08464 13.2266 9.29687 13.3828 9.5625C13.5391 9.82552 13.6172 10.1172 13.6172 10.4375C13.6172 10.7552 13.5391 11.0469 13.3828 11.3125C13.2266 11.5755 13.0169 11.7865 12.7539 11.9453C12.4909 12.1016 12.1992 12.1797 11.8789 12.1797C11.5586 12.1797 11.2656 12.1016 11 11.9453C10.737 11.7865 10.5273 11.5755 10.3711 11.3125C10.2148 11.0469 10.1367 10.7552 10.1367 10.4375V9.57812H8.75V10.4375C8.75 10.7552 8.67057 11.0469 8.51172 11.3125C8.35547 11.5755 8.14453 11.7865 7.87891 11.9453C7.61589 12.1016 7.32422 12.1797 7.00391 12.1797ZM7.00391 11.2891C7.16276 11.2891 7.30599 11.2513 7.43359 11.1758C7.5638 11.1003 7.66797 10.9974 7.74609 10.8672C7.82422 10.737 7.86328 10.5937 7.86328 10.4375V9.57812H7.00391C6.84766 9.57812 6.70443 9.61719 6.57422 9.69531C6.44401 9.77083 6.33984 9.8737 6.26172 10.0039C6.1862 10.1341 6.14844 10.2786 6.14844 10.4375C6.14844 10.5937 6.1862 10.737 6.26172 10.8672C6.33984 10.9974 6.44401 11.1003 6.57422 11.1758C6.70443 11.2513 6.84766 11.2891 7.00391 11.2891ZM7.00391 6.41406H7.86328V5.5625C7.86328 5.40365 7.82422 5.26042 7.74609 5.13281C7.66797 5.0026 7.5638 4.89974 7.43359 4.82422C7.30599 4.7487 7.16276 4.71094 7.00391 4.71094C6.84766 4.71094 6.70443 4.7487 6.57422 4.82422C6.44401 4.89974 6.33984 5.0026 6.26172 5.13281C6.1862 5.26042 6.14844 5.40365 6.14844 5.5625C6.14844 5.72135 6.1862 5.86589 6.26172 5.99609C6.33984 6.1237 6.44401 6.22526 6.57422 6.30078C6.70443 6.3763 6.84766 6.41406 7.00391 6.41406ZM11.0234 6.41406H11.8789C12.0378 6.41406 12.181 6.3763 12.3086 6.30078C12.4362 6.22526 12.5378 6.1237 12.6133 5.99609C12.6914 5.86589 12.7305 5.72135 12.7305 5.5625C12.7305 5.40365 12.6914 5.26042 12.6133 5.13281C12.5378 5.0026 12.4362 4.89974 12.3086 4.82422C12.181 4.7487 12.0378 4.71094 11.8789 4.71094C11.7201 4.71094 11.5755 4.7487 11.4453 4.82422C11.3151 4.89974 11.2122 5.0026 11.1367 5.13281C11.0612 5.26042 11.0234 5.40365 11.0234 5.5625V6.41406ZM11.8789 11.2891C12.0378 11.2891 12.181 11.2513 12.3086 11.1758C12.4362 11.1003 12.5378 10.9974 12.6133 10.8672C12.6914 10.737 12.7305 10.5937 12.7305 10.4375C12.7305 10.2786 12.6914 10.1341 12.6133 10.0039C12.5378 9.8737 12.4362 9.77083 12.3086 9.69531C12.181 9.61719 12.0378 9.57812 11.8789 9.57812H11.0234V10.4375C11.0234 10.5937 11.0612 10.737 11.1367 10.8672C11.2122 10.9974 11.3151 11.1003 11.4453 11.1758C11.5755 11.2513 11.7201 11.2891 11.8789 11.2891ZM8.75 8.6875H10.1367V7.30469H8.75V8.6875ZM18.3506 12H15.7607V4H18.4326C19.2165 4 19.8896 4.16016 20.4521 4.48047C21.0146 4.79818 21.4456 5.25521 21.7451 5.85156C22.0472 6.44531 22.1982 7.15755 22.1982 7.98828C22.1982 8.82161 22.0459 9.53776 21.7412 10.1367C21.4391 10.7357 21.0016 11.1966 20.4287 11.5195C19.8558 11.8398 19.1631 12 18.3506 12ZM16.9678 10.9453H18.2842C18.8936 10.9453 19.4001 10.8307 19.8037 10.6016C20.2074 10.3698 20.5094 10.0352 20.71 9.59766C20.9105 9.15755 21.0107 8.62109 21.0107 7.98828C21.0107 7.36068 20.9105 6.82812 20.71 6.39062C20.512 5.95312 20.2165 5.62109 19.8232 5.39453C19.43 5.16797 18.9417 5.05469 18.3584 5.05469H16.9678V10.9453Z" fill="#757575"/>
</svg>
